:FULLY-SPECIFIED
:FORCE-ALL-JOINTS-BE-3DOF
:DEGREES
2242
root -0.690232 13.7987 -16.646 -169.029 -25.593 168.975
lfemur 11.5964 -0.0215792 -15.1468
ltibia 33.0578 -0 0
lfoot -23.8327 36.5421 0.0075109
ltoes -43.9066 0 0
rfemur -71.7393 -22.5725 8.8908
rtibia 73.486 -0 0
rfoot -6.12409 14.35 -0.0127723
rtoes 3.93986 -0 0
lowerback 9.16939 2.14722 -13.6595
upperback -2.82217 0.817916 -2.04705
thorax -8.47822 0.961439 5.33206
lowerneck 1.02258 -12.0891 -12.4021
upperneck 4.62225 -16.8089 10.4037
head 3.13178 -8.44296 4.40324
lclavicle 0 0 0
lhumerus -69.5271 -18.203 104.016
lradius 102.03 -0 0
lwrist 61.1441 0 0
lhand -10.8865 61.4238 0.051367
lfingers 0 0 0
lthumb 14.8082 128.909 1.06847
rclavicle 0 0 0
rhumerus 49.3412 -9.96363 -59.6826
rradius 16.8191 -0 0
rwrist 34.8723 0 0
rhand -19.955 -42.7303 -0.00048209
rfingers 0 0 0
rthumb 6.38328 -72.6143 -0.000432464
2243
root -0.697322 13.7986 -16.6395 -168.845 -25.5582 168.907
lfemur 11.7073 -0.0707645 -15.2131
ltibia 32.7373 -0 0
lfoot -23.755 36.5918 0.00683793
ltoes -44.1272 0 0
rfemur -72.0029 -22.6628 8.94234
rtibia 73.742 -0 0
rfoot -6.30166 14.3869 -0.0116278
rtoes 4.02562 -0 0
lowerback 9.05966 2.14772 -13.7014
upperback -2.85447 0.824498 -2.07299
thorax -8.4529 0.964933 5.32666
lowerneck 1.00212 -12.1061 -12.381
upperneck 4.59694 -16.8276 10.4152
head 3.1289 -8.4508 4.40148
lclavicle 0 0 0
lhumerus -69.5317 -18.2234 104.021
lradius 102.008 -0 0
lwrist 61.2219 0 0
lhand -10.9858 61.1581 0.0467628
lfingers 0 0 0
lthumb 14.7131 124.011 0.959238
rclavicle 0 0 0
rhumerus 49.3549 -9.98295 -59.6068
rradius 16.8397 -0 0
rwrist 34.7853 0 0
rhand -19.9788 -42.7199 -0.000438897
rfingers 0 0 0
rthumb 6.36029 -72.6046 -0.000393717
2244
root -0.704241 13.7987 -16.6321 -168.67 -25.5247 168.842
lfemur 11.8133 -0.117607 -15.2766
ltibia 32.4313 -0 0
lfoot -23.6807 36.6391 0.00613255
ltoes -44.3378 0 0
rfemur -72.2547 -22.7487 8.99199
rtibia 73.9863 -0 0
rfoot -6.4712 14.4222 -0.0104282
rtoes 4.10751 -0 0
lowerback 8.9549 2.14811 -13.7413
upperback -2.88531 0.830769 -2.09777
thorax -8.42873 0.968272 5.3215
lowerneck 0.982588 -12.1223 -12.3607
upperneck 4.57276 -16.8454 10.4261
head 3.12616 -8.45828 4.39981
lclavicle 0 0 0
lhumerus -69.5362 -18.2429 104.026
lradius 101.987 -0 0
lwrist 61.2961 0 0
lhand -11.0805 60.9044 0.0419373
lfingers 0 0 0
lthumb 14.6314 119.334 0.847732
rclavicle 0 0 0
rhumerus 49.368 -10.0014 -59.5345
rradius 16.8594 -0 0
rwrist 34.7023 0 0
rhand -20.0016 -42.71 -0.000393623
rfingers 0 0 0
rthumb 6.33834 -72.5954 -0.000353104
2245
root -0.710932 13.799 -16.624 -168.504 -25.4929 168.781
lfemur 11.9138 -0.161896 -15.3369
ltibia 32.1413 -0 0
lfoot -23.6104 36.684 0.00540732
ltoes -44.5375 0 0
rfemur -72.4936 -22.83 9.03946
rtibia 74.2179 -0 0
rfoot -6.63189 14.4556 -0.00919481
rtoes 4.18513 -0 0
lowerback 8.8556 2.14842 -13.7792
upperback -2.91455 0.836701 -2.12125
thorax -8.40581 0.971438 5.31662
lowerneck 0.964064 -12.1376 -12.3415
upperneck 4.54984 -16.8623 10.4365
head 3.12356 -8.46538 4.39822
lclavicle 0 0 0
lhumerus -69.5404 -18.2613 104.03
lradius 101.968 -0 0
lwrist 61.3665 0 0
lhand -11.1703 60.6639 0.0369764
lfingers 0 0 0
lthumb 14.5625 114.902 0.736223
rclavicle 0 0 0
rhumerus 49.3804 -10.0189 -59.4659
rradius 16.8781 -0 0
rwrist 34.6235 0 0
rhand -20.0231 -42.7006 -0.000347075
rfingers 0 0 0
rthumb 6.31753 -72.5866 -0.000311348
2246
root -0.717338 13.7994 -16.6156 -168.348 -25.4628 168.723
lfemur 12.0083 -0.203425 -15.3936
ltibia 31.8687 -0 0
lfoot -23.5443 36.7262 0.00467546
ltoes -44.7251 0 0
rfemur -72.7184 -22.9063 9.08443
rtibia 74.4356 -0 0
rfoot -6.78292 14.487 -0.00795022
rtoes 4.25807 -0 0
lowerback 8.76227 2.14865 -13.8148
upperback -2.94203 0.842265 -2.14333
thorax -8.38428 0.974416 5.31203
lowerneck 0.946649 -12.152 -12.3235
upperneck 4.5283 -16.8782 10.4463
head 3.12111 -8.47204 4.39673
lclavicle 0 0 0
lhumerus -69.5444 -18.2787 104.034
lradius 101.949 -0 0
lwrist 61.4326 0 0
lhand -11.2546 60.4379 0.0319705
lfingers 0 0 0
lthumb 14.5059 110.736 0.626865
rclavicle 0 0 0
rhumerus 49.392 -10.0354 -59.4015
rradius 16.8956 -0 0
rwrist 34.5495 0 0
rhand -20.0434 -42.6917 -0.000300101
rfingers 0 0 0
rthumb 6.29798 -72.5784 -0.000269209
2247
root -0.723403 13.8 -16.6069 -168.203 -25.4347 168.67
lfemur 12.0963 -0.241985 -15.4464
ltibia 31.615 -0 0
lfoot -23.4827 36.7655 0.00395068
ltoes -44.8997 0 0
rfemur -72.9277 -22.977 9.12659
rtibia 74.6381 -0 0
rfoot -6.92346 14.5162 -0.0067177
rtoes 4.32595 -0 0
lowerback 8.67543 2.14881 -13.848
upperback -2.9676 0.847433 -2.16387
thorax -8.36424 0.977188 5.30776
lowerneck 0.930439 -12.1653 -12.3067
upperneck 4.50824 -16.893 10.4554
head 3.11884 -8.47825 4.39534
lclavicle 0 0 0
lhumerus -69.548 -18.2948 104.038
lradius 101.932 -0 0
lwrist 61.4942 0 0
lhand -11.3331 60.2276 0.0270134
lfingers 0 0 0
lthumb 14.4604 106.86 0.521652
rclavicle 0 0 0
rhumerus 49.4028 -10.0508 -59.3416
rradius 16.9119 -0 0
rwrist 34.4807 0 0
rhand -20.0622 -42.6835 -0.000253581
rfingers 0 0 0
rthumb 6.27978 -72.5708 -0.000227478
2248
root -0.72907 13.8007 -16.5983 -168.07 -25.4087 168.621
lfemur 12.1772 -0.277371 -15.495
ltibia 31.3818 -0 0
lfoot -23.4262 36.8016 0.003247
ltoes -45.0603 0 0
rfemur -73.1203 -23.042 9.16563
rtibia 74.8244 -0 0
rfoot -7.05269 14.5431 -0.0055211
rtoes 4.38837 -0 0
lowerback 8.59557 2.14892 -13.8784
upperback -2.99112 0.852177 -2.18276
thorax -8.34582 0.979739 5.30383
lowerneck 0.915529 -12.1776 -12.2913
upperneck 4.4898 -16.9065 10.4638
head 3.11675 -8.48395 4.39406
lclavicle 0 0 0
lhumerus -69.5514 -18.3097 104.042
lradius 101.916 -0 0
lwrist 61.5508 0 0
lhand -11.4053 60.0343 0.0222011
lfingers 0 0 0
lthumb 14.425 103.296 0.422395
rclavicle 0 0 0
rhumerus 49.4127 -10.0649 -59.2864
rradius 16.9269 -0 0
rwrist 34.4173 0 0
rhand -20.0795 -42.6759 -0.000208415
rfingers 0 0 0
rthumb 6.26305 -72.5637 -0.000186961
